<?xml version="1.0" standalone="no"?>
<!DOCTYPE svg PUBLIC "-//W3C//DTD SVG 20010904//EN"
 "http://www.w3.org/TR/2001/REC-SVG-20010904/DTD/svg10.dtd">
<svg version="1.0" xmlns="http://www.w3.org/2000/svg"
 width="400.000000pt" height="400.000000pt" viewBox="0 0 400.000000 400.000000"
 preserveAspectRatio="xMidYMid meet">
<metadata>
Created by potrace 1.16, written by Peter Selinger 2001-2019
</metadata>
<g transform="translate(0.000000,400.000000) scale(0.100000,-0.100000)"
fill="#000000" stroke="none">
<path d="M1387 2693 c-4 -3 -7 -14 -7 -23 0 -10 -7 -23 -15 -30 -13 -11 -15
-45 -13 -237 l3 -223 -47 0 c-45 0 -48 2 -48 25 0 14 -9 33 -20 42 -11 10 -20
30 -20 45 0 17 -8 33 -20 40 -11 7 -20 23 -20 35 0 12 -10 31 -22 42 -17 17
-19 23 -9 35 10 12 8 21 -13 49 -22 28 -35 35 -72 40 -27 3 -54 13 -68 26 -12
11 -29 21 -37 21 -8 0 -22 9 -32 20 -10 12 -29 20 -47 20 -17 0 -43 8 -57 18
-23 14 -52 17 -189 17 -140 0 -164 -2 -181 -17 -11 -10 -34 -18 -51 -18 -20 0
-39 -8 -49 -20 -10 -11 -23 -20 -30 -20 -7 0 -23 -11 -37 -25 -14 -14 -32 -25
-41 -25 -8 0 -15 -7 -15 -15 0 -17 -25 -20 -35 -5 -9 15 -25 12 -32 -6 -3 -9
0 -20 8 -24 7 -5 10 -13 5 -17 -5 -4 -11 -2 -13 5 -5 14 -29 16 -38 2 -3 -5 0
-18 6 -28 10 -16 8 -23 -10 -41 -11 -11 -21 -29 -21 -39 0 -10 -9 -25 -20 -35
-15 -12 -20 -30 -20 -64 l-1 -48 -14 33 c-21 49 -45 42 -45 -13 0 -25 5 -45
10 -45 6 0 10 -72 10 -195 0 -184 1 -196 20 -207 13 -8 20 -24 20 -44 0 -18 8
-38 20 -49 11 -10 20 -26 20 -36 0 -10 8 -24 18 -31 10 -7 21 -21 25 -30 3
-10 13 -18 22 -18 8 0 15 -9 15 -20 0 -13 7 -20 20 -20 13 0 20 -7 20 -19 0
-28 47 -61 85 -61 24 0 34 -5 38 -20 4 -14 14 -20 34 -20 l28 0 -24 -19 c-13
-10 -21 -23 -17 -30 9 -15 51 -14 76 1 16 10 25 9 51 -6 27 -16 45 -18 122
-13 49 3 95 11 100 16 6 6 39 11 73 11 46 0 68 5 87 20 14 11 35 20 46 20 12
0 30 9 41 20 11 11 27 20 36 20 9 0 18 9 21 20 3 11 14 20 24 20 12 0 19 7 19
20 0 23 10 26 28 8 9 -9 15 -9 24 0 9 9 9 15 0 24 -18 18 -15 28 8 28 13 0 20
7 20 19 0 10 9 21 20 24 11 3 20 14 20 25 0 10 9 27 20 37 13 12 20 31 20 57
0 39 7 47 28 26 9 -9 15 -9 24 0 9 9 9 15 0 24 -7 7 -12 25 -12 40 l0 28 100
0 c87 0 100 -2 100 -17 0 -33 41 -103 61 -103 14 0 19 -7 19 -29 0 -17 8 -35
18 -43 10 -7 21 -21 25 -30 3 -10 13 -18 22 -18 8 0 15 -9 15 -20 0 -11 9 -29
20 -40 11 -11 20 -27 20 -36 0 -9 8 -18 18 -21 13 -3 22 -22 32 -66 16 -77 21
-84 72 -92 22 -4 49 -16 59 -26 17 -17 35 -19 159 -19 125 0 142 2 159 19 11
11 36 23 55 26 49 10 75 30 59 46 -17 17 -16 39 2 39 8 0 17 14 20 34 5 22 14
36 26 39 10 3 19 12 19 21 0 9 9 25 20 36 11 11 20 29 20 40 0 11 7 20 15 20
9 0 19 8 22 18 4 9 15 23 25 30 10 8 18 26 18 43 0 31 9 36 29 17 10 -11 15
-9 27 6 8 11 14 30 14 42 0 12 3 36 6 53 l7 31 98 0 99 0 0 -28 c0 -15 -5 -33
-12 -40 -9 -9 -9 -15 0 -24 9 -9 15 -9 24 0 21 21 28 13 28 -26 0 -26 7 -45
20 -57 11 -10 20 -27 20 -37 0 -11 9 -22 20 -25 11 -3 20 -14 20 -24 0 -12 7
-19 20 -19 23 0 26 -10 8 -28 -9 -9 -9 -15 0 -24 9 -9 15 -9 24 0 18 18 28 15
28 -8 0 -13 7 -20 19 -20 10 0 21 -9 24 -20 3 -11 12 -20 21 -20 9 0 25 -9 36
-20 11 -11 29 -20 41 -20 11 0 32 -9 46 -20 19 -15 41 -20 87 -20 34 0 67 -5
73 -11 5 -5 51 -13 100 -16 77 -5 95 -3 122 13 26 15 35 16 51 6 25 -15 67
-16 76 -1 4 7 -4 20 -17 30 l-24 19 28 0 c20 0 30 6 34 20 4 15 14 20 38 20
38 0 85 33 85 61 0 12 7 19 20 19 13 0 20 7 20 20 0 11 7 20 15 20 9 0 19 8
22 18 4 9 15 23 25 30 10 7 18 21 18 31 0 10 9 26 20 36 12 11 20 31 20 49 0
20 7 36 20 44 19 11 20 23 20 207 0 123 4 195 10 195 6 0 10 20 10 45 0 55
-24 62 -45 13 l-14 -33 -1 48 c0 34 -5 52 -20 64 -11 10 -20 25 -20 35 0 10
-10 28 -21 39 -18 18 -20 25 -10 41 6 10 9 23 6 28 -9 14 -33 12 -38 -2 -2 -7
-8 -9 -13 -5 -5 4 -2 12 5 17 8 4 11 15 8 24 -7 18 -23 21 -32 6 -10 -15 -35
-12 -35 5 0 8 -7 15 -15 15 -9 0 -27 11 -41 25 -14 14 -30 25 -37 25 -7 0 -20
9 -30 20 -10 12 -29 20 -49 20 -17 0 -40 8 -51 18 -17 15 -41 17 -181 17 -137
0 -166 -3 -189 -17 -14 -10 -40 -18 -57 -18 -18 0 -37 -8 -47 -20 -10 -11 -24
-20 -32 -20 -8 0 -25 -10 -37 -21 -14 -13 -41 -23 -68 -26 -37 -5 -50 -12 -72
-40 -21 -28 -23 -37 -13 -49 10 -12 8 -18 -9 -35 -12 -11 -22 -30 -22 -42 0
-12 -9 -28 -20 -35 -12 -7 -20 -23 -20 -40 0 -15 -9 -35 -20 -45 -11 -9 -20
-28 -20 -42 0 -23 -3 -25 -47 -25 l-48 0 3 221 c2 181 0 225 -12 238 -7 9 -16
25 -18 36 -3 17 -12 20 -59 23 -45 2 -58 -1 -74 -18 -10 -11 -27 -20 -37 -20
-11 0 -22 -9 -25 -20 -3 -13 -14 -20 -29 -20 -13 0 -31 -8 -41 -18 -10 -11
-26 -22 -35 -25 -10 -4 -18 -13 -18 -22 0 -8 -9 -15 -20 -15 -11 0 -29 -9 -40
-20 -11 -11 -26 -20 -33 -20 -8 0 -22 -9 -32 -20 -10 -11 -26 -20 -36 -20 -11
0 -24 -9 -31 -20 -7 -11 -21 -20 -30 -20 -11 0 -18 -8 -18 -20 0 -23 -10 -26
-28 -8 -9 9 -15 9 -24 0 -7 -7 -25 -12 -40 -12 -21 0 -28 5 -28 20 0 12 -7 20
-18 20 -9 0 -23 9 -30 20 -7 11 -20 20 -31 20 -10 0 -26 9 -36 20 -10 11 -26
20 -35 20 -9 0 -25 9 -35 20 -10 11 -26 20 -37 20 -10 0 -18 7 -18 15 0 9 -8
18 -17 22 -10 3 -26 14 -36 25 -10 10 -28 18 -41 18 -15 0 -26 7 -29 20 -3 11
-14 20 -25 20 -10 0 -27 9 -37 20 -14 15 -31 20 -70 20 -28 0 -55 -3 -58 -7z
m-674 -413 c9 -11 27 -20 39 -20 12 0 28 -7 37 -15 9 -8 30 -26 46 -40 l30
-24 -152 -1 c-135 0 -153 -2 -165 -18 -7 -10 -21 -21 -30 -25 -16 -6 -18 -21
-18 -122 0 -106 1 -115 19 -115 10 0 21 -9 24 -20 5 -19 14 -20 161 -20 146 0
156 -1 156 -19 0 -10 -9 -21 -20 -24 -11 -3 -20 -12 -20 -21 0 -10 -9 -16 -25
-16 -14 0 -33 -9 -42 -20 -15 -17 -30 -20 -113 -20 -84 0 -97 2 -108 20 -8 13
-23 20 -42 20 -17 0 -30 5 -30 10 0 6 11 10 24 10 38 0 40 17 7 51 -34 33 -51
31 -51 -7 0 -13 -4 -24 -10 -24 -5 0 -10 9 -10 20 0 13 -7 20 -19 20 -16 0
-19 11 -24 81 -9 115 1 196 24 202 11 3 19 14 19 26 0 12 6 21 15 21 8 0 15 7
15 15 0 8 7 15 15 15 8 0 20 9 27 20 7 11 23 20 36 20 12 0 30 9 39 20 14 16
30 20 73 20 43 0 59 -4 73 -20z m2720 0 c9 -11 25 -20 36 -20 21 0 104 -75
114 -102 4 -10 13 -18 20 -18 19 0 28 -94 20 -199 -5 -70 -8 -81 -24 -81 -12
0 -19 -7 -19 -20 0 -11 -4 -20 -10 -20 -5 0 -10 11 -10 25 0 14 -8 29 -20 35
-13 7 -20 21 -20 40 0 16 -4 32 -10 35 -5 3 -10 44 -10 91 0 71 -3 86 -17 91
-10 4 -24 15 -31 25 -12 16 -30 18 -165 18 l-152 1 30 24 c17 14 37 32 46 40
9 8 25 15 37 15 12 0 30 9 39 20 14 16 30 20 73 20 43 0 59 -4 73 -20z m47
-446 c4 -23 11 -30 33 -32 37 -4 35 -22 -3 -22 -19 0 -34 -7 -42 -20 -11 -18
-24 -20 -115 -20 -84 0 -103 3 -103 15 0 8 -14 17 -34 20 -22 5 -36 14 -39 26
-3 10 -12 19 -21 19 -9 0 -16 8 -16 20 0 18 8 20 158 22 86 2 162 3 167 2 6 0
12 -14 15 -30z"/>
</g>
</svg>
