<?xml version="1.0" standalone="no"?>
<!DOCTYPE svg PUBLIC "-//W3C//DTD SVG 20010904//EN"
 "http://www.w3.org/TR/2001/REC-SVG-20010904/DTD/svg10.dtd">
<svg version="1.0" xmlns="http://www.w3.org/2000/svg"
 width="400.000000pt" height="400.000000pt" viewBox="0 0 400.000000 400.000000"
 preserveAspectRatio="xMidYMid meet">
<metadata>
Created by potrace 1.16, written by Peter Selinger 2001-2019
</metadata>
<g transform="translate(0.000000,400.000000) scale(0.100000,-0.100000)"
fill="#000000" stroke="none">
<path d="M1497 3885 c-29 -27 -37 -43 -37 -69 0 -25 -5 -35 -20 -39 -11 -3
-20 -14 -20 -25 0 -10 -9 -27 -20 -37 -13 -12 -20 -31 -20 -54 0 -25 -6 -40
-20 -49 -12 -7 -20 -23 -20 -40 0 -16 -8 -32 -20 -40 -12 -7 -20 -23 -20 -41
0 -20 -6 -30 -20 -34 -15 -4 -20 -14 -20 -39 0 -21 -7 -40 -20 -51 -11 -9 -20
-28 -20 -42 0 -14 -9 -34 -20 -45 -13 -13 -20 -33 -20 -59 0 -30 -4 -40 -20
-44 -13 -3 -20 -14 -20 -30 0 -13 -9 -32 -20 -42 -12 -11 -20 -31 -20 -50 0
-24 -5 -34 -20 -38 -15 -4 -20 -14 -20 -39 0 -22 -6 -37 -20 -46 -12 -7 -20
-23 -20 -41 0 -20 -6 -30 -20 -34 -19 -5 -21 -12 -18 -79 l3 -73 195 0 c181 0
195 1 198 18 2 11 12 27 23 38 10 10 19 27 19 37 0 9 9 23 20 30 14 8 20 23
20 47 0 24 5 35 15 35 9 0 17 14 21 40 4 21 15 47 25 56 12 11 19 31 19 56 0
31 3 38 20 38 15 0 20 7 20 25 0 15 6 25 14 25 8 0 17 14 21 33 4 17 16 40 26
50 13 12 19 32 19 61 0 35 4 45 20 49 19 5 20 14 20 126 0 105 -2 122 -19 138
-14 14 -20 36 -23 95 -2 53 -8 82 -20 95 -9 10 -18 36 -20 58 -3 34 -7 40 -28
43 -14 2 -29 8 -34 13 -15 14 -19 12 -59 -26z"/>
<path d="M2435 3908 c-11 -6 -27 -14 -35 -18 -10 -5 -17 -27 -20 -66 -3 -32
-13 -76 -23 -96 -9 -21 -17 -61 -17 -90 0 -42 -4 -56 -20 -66 -17 -11 -20 -23
-20 -98 0 -75 2 -86 19 -91 20 -5 31 -70 31 -191 0 -54 -2 -63 -16 -58 -9 3
-20 6 -25 6 -5 0 -9 16 -9 36 0 27 -5 37 -20 41 -15 4 -20 14 -20 40 0 26 -5
36 -20 40 -15 4 -20 14 -20 37 0 46 -11 76 -26 76 -9 0 -14 12 -14 35 0 24 -6
39 -20 47 -22 14 -27 57 -9 75 15 15 -36 83 -62 83 -12 0 -23 10 -29 25 -21
54 -120 15 -120 -48 l0 -32 -19 24 c-10 13 -23 21 -30 17 -14 -9 -15 -63 -1
-71 12 -7 14 -65 2 -65 -4 0 -13 5 -20 12 -9 9 -15 9 -24 0 -9 -9 -9 -15 0
-24 20 -20 15 -65 -8 -71 -15 -4 -20 -14 -20 -39 0 -22 -6 -37 -20 -46 -12 -7
-20 -23 -20 -40 0 -15 -9 -35 -20 -45 -11 -9 -20 -27 -20 -39 0 -13 -9 -29
-20 -36 -12 -7 -20 -23 -20 -40 0 -15 -9 -35 -20 -45 -12 -10 -20 -29 -20 -47
0 -18 -5 -30 -13 -30 -7 0 -22 -6 -33 -14 -15 -12 -17 -17 -6 -27 20 -21 15
-66 -8 -72 -15 -4 -20 -14 -20 -40 0 -27 -5 -36 -21 -40 -18 -5 -20 -12 -17
-59 l3 -53 92 -3 92 -3 44 -42 45 -42 4 -117 c2 -93 6 -120 21 -135 15 -17 17
-42 17 -194 0 -184 4 -219 26 -219 10 0 14 -43 18 -197 6 -226 13 -319 26
-348 5 -11 11 -100 12 -197 3 -162 5 -179 23 -197 48 -46 95 -29 95 34 0 24 9
42 30 63 24 25 30 39 30 76 0 24 -4 48 -10 51 -6 4 -10 79 -10 193 0 176 1
188 20 200 19 11 20 23 20 191 0 116 4 182 11 186 5 4 15 19 21 33 8 19 12 22
15 12 2 -8 25 -25 51 -38 40 -19 63 -22 155 -22 101 0 107 -1 107 -20 0 -11 8
-24 18 -27 9 -4 23 -15 30 -25 7 -10 26 -18 41 -18 20 0 30 -6 34 -20 4 -15
14 -20 40 -20 26 0 36 -5 40 -20 4 -15 14 -20 39 -20 21 0 40 -7 51 -20 10
-12 29 -20 47 -20 20 0 30 -5 30 -15 0 -10 14 -17 40 -21 23 -4 40 -12 40 -19
0 -8 15 -17 33 -20 17 -4 40 -16 50 -26 12 -13 32 -19 61 -19 35 0 45 -4 49
-20 4 -15 14 -20 40 -20 26 0 36 -5 40 -20 3 -11 14 -20 25 -20 10 0 27 -9 37
-20 10 -11 29 -20 42 -20 13 0 33 -9 45 -20 12 -11 36 -20 52 -20 20 0 36 -7
44 -20 7 -12 23 -20 41 -20 20 0 30 -6 34 -20 4 -15 14 -20 39 -20 22 0 37 -6
46 -20 8 -14 23 -20 46 -20 20 0 40 -8 51 -20 10 -11 31 -20 46 -20 18 0 34
-8 41 -20 7 -11 20 -20 28 -20 9 0 23 -9 33 -20 20 -24 69 -26 91 -4 24 23 22
119 -2 136 -10 7 -21 21 -25 31 -3 9 -13 17 -22 17 -8 0 -15 6 -15 14 0 7 -18
33 -40 57 -22 24 -43 52 -46 62 -3 9 -10 17 -15 17 -5 0 -14 11 -19 25 -5 14
-16 25 -25 25 -8 0 -15 9 -15 20 0 13 -7 20 -20 20 -13 0 -20 7 -20 20 0 13
-7 20 -20 20 -13 0 -20 7 -20 18 0 11 -9 27 -20 37 -11 10 -20 27 -20 37 0 11
-9 22 -20 25 -11 3 -20 12 -20 20 0 8 -9 17 -19 20 -19 5 -31 40 -31 88 0 18
-7 25 -30 30 -34 7 -75 43 -85 74 -8 26 -68 71 -94 71 -12 0 -21 5 -21 10 0 6
-8 10 -19 10 -10 0 -21 9 -24 20 -4 15 -14 20 -40 20 -26 0 -36 5 -40 20 -3
13 -14 20 -31 20 -15 0 -31 8 -38 20 -7 11 -21 20 -30 20 -10 0 -27 9 -38 20
-11 11 -31 20 -43 20 -13 0 -32 9 -42 20 -10 11 -25 20 -34 20 -9 0 -22 9 -29
20 -7 12 -23 20 -41 20 -20 0 -30 6 -34 20 -4 15 -14 20 -40 20 -26 0 -36 5
-40 20 -4 15 -14 20 -40 20 -26 0 -36 5 -40 20 -3 13 -14 20 -28 20 -21 0 -21
1 -5 19 10 11 16 31 14 48 -3 27 -5 28 -68 31 -38 2 -74 -2 -88 -9 -19 -11
-27 -11 -44 0 -15 9 -23 10 -31 2 -6 -6 -31 -11 -55 -11 -35 0 -45 -4 -49 -20
-3 -11 -12 -20 -19 -20 -8 0 -17 -8 -21 -17 -3 -10 -14 -26 -25 -36 -16 -16
-18 -35 -18 -166 0 -135 -2 -149 -20 -166 -20 -18 -20 -17 -20 109 0 92 4 133
14 149 8 12 17 50 21 83 6 53 12 67 41 95 19 18 34 41 34 51 0 16 10 18 83 18
94 0 114 9 123 57 5 24 2 35 -15 49 -12 11 -21 30 -21 46 0 17 -8 33 -20 40
-14 9 -20 24 -20 46 0 25 -5 35 -20 39 -22 6 -25 14 -11 28 6 6 11 30 13 55 3
41 6 45 31 48 24 3 27 0 27 -27 0 -19 8 -38 20 -48 11 -10 20 -28 20 -40 0
-13 9 -31 20 -40 13 -11 20 -30 20 -51 0 -25 5 -35 20 -39 14 -4 20 -14 20
-34 0 -18 8 -34 20 -41 11 -7 20 -23 20 -35 0 -48 18 -53 210 -53 l179 0 20
26 c25 31 27 57 6 74 -8 7 -15 25 -15 41 0 17 -9 37 -20 46 -11 10 -20 30 -20
45 0 17 -8 33 -20 40 -12 8 -20 24 -20 40 0 17 -8 33 -20 40 -14 9 -20 24 -20
46 0 25 -5 35 -20 39 -24 6 -24 12 -5 37 17 23 19 59 5 87 -15 28 -29 24 -45
-13 l-14 -33 -1 38 c0 30 -4 40 -20 44 -15 4 -20 14 -20 37 0 46 -11 76 -26
76 -9 0 -14 12 -14 35 0 24 -6 39 -20 47 -11 7 -20 23 -20 36 0 12 -9 30 -20
39 -11 10 -20 28 -20 40 0 13 -9 31 -20 40 -13 11 -20 30 -20 51 0 25 -5 35
-20 39 -15 4 -20 14 -20 40 0 26 -5 36 -19 40 -14 4 -21 15 -23 42 -2 30 -7
37 -28 39 -14 2 -29 8 -34 13 -12 11 -16 11 -41 -3z"/>
<path d="M1685 2630 c-3 -5 -42 -10 -86 -10 -68 0 -81 -3 -91 -20 -7 -11 -23
-20 -36 -20 -12 0 -30 -9 -39 -20 -10 -11 -25 -20 -34 -20 -9 0 -24 -9 -34
-20 -10 -11 -28 -20 -40 -20 -12 0 -30 -8 -39 -19 -9 -10 -35 -21 -56 -25 -26
-4 -40 -12 -40 -21 0 -9 -9 -15 -21 -15 -12 0 -23 -8 -26 -20 -4 -15 -14 -20
-38 -20 -19 0 -39 -8 -50 -20 -10 -11 -28 -20 -40 -20 -12 0 -30 -9 -40 -20
-10 -11 -28 -20 -40 -20 -12 0 -30 -9 -40 -20 -10 -11 -29 -20 -42 -20 -16 0
-27 -7 -30 -20 -4 -15 -14 -20 -40 -20 -26 0 -36 -5 -40 -20 -3 -11 -14 -20
-24 -20 -11 0 -19 -4 -19 -10 0 -5 -9 -10 -21 -10 -26 0 -86 -45 -94 -71 -10
-31 -51 -67 -85 -74 -23 -5 -30 -12 -30 -30 0 -45 -13 -85 -27 -85 -8 0 -17
-9 -20 -19 -3 -11 -13 -21 -24 -24 -10 -3 -19 -14 -19 -25 0 -10 -9 -27 -20
-37 -11 -10 -20 -26 -20 -37 0 -11 -7 -18 -20 -18 -13 0 -20 -7 -20 -20 0 -13
-7 -20 -20 -20 -13 0 -20 -7 -20 -20 0 -11 -7 -20 -15 -20 -9 0 -18 -8 -22
-17 -7 -20 -11 -24 -77 -99 -25 -28 -46 -58 -46 -68 0 -9 -7 -16 -15 -16 -9 0
-19 -8 -22 -17 -4 -10 -15 -24 -25 -31 -24 -17 -26 -113 -2 -136 22 -22 71
-20 91 4 10 11 25 20 34 20 9 0 24 9 34 20 10 11 28 20 40 20 12 0 30 9 40 20
11 12 31 20 51 20 23 0 38 6 46 20 9 14 24 20 46 20 25 0 35 5 39 20 4 15 14
20 40 20 26 0 36 5 40 20 4 15 14 20 38 20 19 0 39 8 50 20 19 21 50 26 60 10
3 -6 17 -10 31 -10 13 0 24 -4 24 -10 0 -5 -18 -10 -40 -10 -62 0 -80 -24 -80
-109 0 -56 4 -72 18 -83 10 -7 21 -21 25 -31 3 -9 13 -17 22 -17 11 0 15 -10
15 -36 0 -27 5 -37 19 -41 11 -3 21 -13 24 -24 3 -10 12 -19 21 -19 9 0 16 -8
16 -20 0 -13 7 -20 20 -20 13 0 20 -7 20 -20 0 -13 7 -20 20 -20 22 0 26 -10
8 -28 -17 -17 7 -39 53 -47 29 -5 39 -11 39 -26 0 -12 7 -19 19 -19 10 0 21
-9 24 -20 3 -11 12 -20 21 -20 9 0 16 -7 16 -15 0 -9 8 -18 18 -22 9 -3 25
-14 35 -25 10 -10 28 -18 41 -18 15 0 26 -7 29 -20 4 -15 14 -20 41 -20 29 0
36 -4 36 -20 0 -15 7 -20 25 -20 15 0 25 -6 25 -14 0 -8 14 -17 33 -21 17 -4
40 -16 50 -26 13 -14 32 -19 66 -19 35 0 53 -5 66 -20 14 -16 31 -20 77 -20
46 0 58 -3 58 -16 0 -9 9 -18 20 -21 23 -6 25 -14 9 -30 -6 -6 -9 -23 -7 -39
4 -38 32 -39 36 -1 5 40 22 33 22 -9 0 -27 5 -37 20 -41 22 -6 28 -51 9 -70
-16 -16 -2 -33 27 -33 21 0 24 -5 24 -35 0 -23 7 -41 20 -52 13 -11 20 -30 20
-51 0 -25 5 -35 19 -39 14 -4 21 -15 23 -42 l3 -36 55 0 55 0 3 153 c2 145 1
154 -17 159 -19 5 -20 16 -23 216 -3 192 -5 214 -22 238 -41 53 -65 63 -161
67 -73 4 -92 8 -103 23 -8 11 -25 19 -43 19 -16 0 -38 9 -49 20 -13 13 -33 20
-59 20 -30 0 -40 4 -44 20 -4 15 -14 20 -41 20 -29 0 -36 4 -36 20 0 12 -7 20
-18 20 -9 0 -23 9 -30 20 -7 11 -18 20 -26 20 -7 0 -21 9 -31 20 -10 11 -26
20 -37 20 -21 0 -23 11 -6 28 9 9 9 15 0 24 -9 9 -15 9 -24 0 -17 -17 -25 -15
-31 8 -3 11 -12 20 -20 20 -8 0 -17 9 -20 20 -3 11 -12 20 -21 20 -19 0 -21
11 -4 28 9 9 9 15 0 24 -9 9 -15 9 -24 0 -17 -17 -25 -15 -31 8 -3 11 -12 20
-21 20 -9 0 -16 8 -16 18 0 9 -9 23 -20 30 -12 7 -20 23 -20 38 0 17 -7 28
-20 31 -11 3 -20 14 -20 24 0 12 -7 19 -18 19 -10 0 -25 9 -35 20 -9 11 -21
20 -27 20 -6 0 -18 -9 -27 -20 -22 -26 -65 -26 -88 0 -18 20 -17 20 8 20 20 0
27 5 27 20 0 21 15 27 25 10 3 -5 20 -10 36 -10 25 0 33 6 42 30 9 23 17 30
39 30 16 0 36 9 45 20 11 13 30 20 51 20 25 0 35 5 39 20 4 14 14 20 34 20 18
0 34 8 41 20 8 12 24 20 39 20 14 0 38 9 52 20 14 11 34 20 45 20 10 0 27 9
37 20 20 23 45 26 63 8 9 -9 15 -9 24 0 9 9 9 15 0 24 -7 7 -12 16 -12 20 0
12 54 10 67 -3 16 -16 33 -2 33 26 0 13 5 27 10 30 6 3 10 15 10 26 0 18 8 19
110 19 93 0 116 3 152 22 24 12 46 27 50 32 4 6 8 41 8 79 0 55 -4 70 -20 84
-18 16 -20 30 -20 155 0 128 -2 140 -21 159 -18 18 -20 25 -10 41 10 16 7 23
-18 48 -32 33 -37 35 -46 20z"/>
<path d="M3110 1550 c-6 -11 -17 -20 -25 -20 -8 0 -17 -15 -21 -35 -7 -37 -13
-42 -32 -23 -9 9 -15 9 -24 0 -9 -9 -9 -15 0 -24 17 -17 15 -25 -8 -31 -11 -3
-20 -12 -20 -21 0 -8 -18 -34 -40 -58 -22 -24 -40 -50 -40 -58 0 -16 -68 -40
-110 -40 -28 0 -34 -18 -14 -41 16 -18 16 -19 -5 -19 -14 0 -25 -7 -28 -20 -3
-11 -14 -20 -24 -20 -11 0 -19 -4 -19 -10 0 -5 -12 -10 -26 -10 -19 0 -28 -7
-37 -30 -9 -23 -17 -30 -39 -30 -16 0 -36 -9 -45 -20 -11 -13 -30 -20 -51 -20
-25 0 -35 -5 -39 -20 -6 -24 -12 -24 -37 -5 -25 19 -50 19 -66 0 -10 -13 -10
-19 4 -34 17 -18 14 -19 -98 -22 -105 -4 -117 -6 -140 -28 -22 -21 -26 -33
-26 -79 0 -39 -5 -61 -17 -75 -16 -17 -18 -48 -22 -257 -3 -224 -4 -239 -22
-243 -16 -4 -19 -15 -19 -77 0 -58 4 -76 18 -86 34 -27 102 -8 102 28 0 9 9
18 20 21 16 4 20 14 20 46 0 28 4 41 14 41 15 0 26 30 26 76 0 23 5 33 20 37
15 4 20 14 20 40 0 26 5 36 20 40 15 4 20 14 20 40 0 26 5 36 20 40 15 4 20
14 20 41 0 32 3 36 25 36 14 0 33 9 42 20 13 15 30 20 69 20 38 0 55 5 69 20
12 13 31 20 56 20 28 0 42 6 51 20 9 14 24 20 46 20 25 0 35 5 39 20 6 22 51
28 70 9 19 -19 86 38 80 68 -3 19 0 23 20 23 16 0 27 7 30 20 6 23 14 25 30 9
15 -15 31 -4 47 36 8 18 27 42 43 51 15 10 32 24 36 31 4 7 15 13 23 13 8 0
17 7 21 15 3 9 23 34 44 56 22 22 39 45 39 50 0 5 7 9 15 9 8 0 15 7 15 15 0
9 11 27 25 41 14 14 25 31 25 38 0 8 9 16 20 19 11 3 20 12 20 21 0 9 9 25 20
36 11 11 20 28 20 39 0 10 9 21 20 24 32 8 25 101 -9 110 -10 2 -21 18 -24 36
-6 28 -10 31 -41 31 -19 0 -38 -4 -41 -10 -10 -16 -22 -12 -28 10 -4 16 -14
20 -45 20 -26 0 -42 5 -46 15 -8 22 -43 18 -56 -5z"/>
</g>
</svg>
