<?xml version="1.0" standalone="no"?>
<!DOCTYPE svg PUBLIC "-//W3C//DTD SVG 20010904//EN"
 "http://www.w3.org/TR/2001/REC-SVG-20010904/DTD/svg10.dtd">
<svg version="1.0" xmlns="http://www.w3.org/2000/svg"
 width="400.000000pt" height="400.000000pt" viewBox="0 0 400.000000 400.000000"
 preserveAspectRatio="xMidYMid meet">

<g transform="translate(0.000000,400.000000) scale(0.100000,-0.100000)"
fill="#000000" stroke="none">
<path d="M1745 3734 c-177 -30 -281 -54 -361 -83 -214 -79 -376 -163 -519
-270 -392 -293 -645 -680 -759 -1161 -54 -225 -54 -600 0 -830 33 -145 109
-357 163 -456 25 -48 27 -49 76 -52 80 -4 86 6 48 80 -70 138 -128 294 -161
438 -53 224 -56 555 -7 779 23 110 85 303 113 357 5 10 27 53 47 94 171 342
452 623 800 800 111 57 211 95 380 144 78 23 336 56 435 56 99 0 357 -33 435
-56 364 -106 599 -240 835 -473 152 -150 255 -291 345 -471 20 -41 42 -84 47
-94 28 -54 90 -247 113 -357 49 -224 46 -555 -7 -779 -33 -144 -91 -300 -161
-438 -38 -74 -32 -84 48 -80 49 3 51 4 76 52 33 60 98 226 127 321 57 187 76
329 75 560 0 299 -37 477 -165 785 -28 66 -128 246 -177 315 -155 221 -396
446 -608 566 -252 144 -431 206 -736 254 -120 18 -388 18 -502 -1z"/>
<path d="M1946 3288 c-88 -185 -146 -310 -146 -313 0 -2 -31 -68 -69 -147 -38
-79 -84 -177 -103 -218 -20 -41 -58 -122 -85 -180 -27 -58 -69 -147 -93 -198
-24 -50 -41 -95 -37 -98 3 -3 46 -7 95 -8 74 -2 97 -7 140 -29 114 -60 153
-132 197 -367 8 -41 23 -115 34 -165 10 -49 35 -171 55 -270 45 -220 43 -215
66 -215 23 0 21 -5 66 215 20 99 45 221 55 270 11 50 26 124 34 165 44 235 83
307 197 367 43 22 66 27 140 29 49 1 92 5 95 8 4 3 -13 48 -37 98 -24 51 -66
140 -93 198 -27 58 -65 139 -85 180 -19 41 -65 139 -103 218 -38 79 -69 145
-69 147 0 3 -58 128 -146 313 -25 52 -40 72 -54 72 -14 0 -29 -20 -54 -72z"/>
<path d="M1517 3250 c-488 -158 -871 -566 -1006 -1070 -34 -131 -44 -241 -38
-440 6 -195 19 -269 74 -435 47 -140 173 -371 211 -387 9 -4 81 -7 158 -7 178
-1 189 6 120 78 -137 148 -259 419 -286 641 -31 260 6 490 117 718 127 260
324 454 596 585 l87 42 65 132 c78 157 80 173 28 172 -21 0 -78 -13 -126 -29z"/>
<path d="M2305 3271 c-3 -6 27 -74 68 -153 l72 -143 95 -48 c250 -128 455
-328 569 -556 54 -107 76 -166 108 -291 23 -94 26 -124 26 -280 0 -148 -3
-190 -23 -270 -50 -207 -137 -382 -268 -538 -64 -76 -56 -82 118 -82 76 0 146
3 155 6 35 14 135 186 187 324 47 121 57 155 80 260 20 91 23 133 22 305 -1
177 -4 213 -27 315 -33 145 -55 208 -121 345 -134 278 -344 504 -615 660 -175
101 -423 182 -446 146z"/>
<path d="M353 700 c-14 -6 -24 -21 -29 -44 -8 -48 -1 -352 9 -363 5 -4 748 -9
1651 -11 1409 -2 1645 0 1661 12 18 13 20 29 23 188 3 165 3 175 -18 201 l-21
27 -1627 -1 c-917 0 -1637 -4 -1649 -9z"/>
</g>
</svg>
