<?xml version="1.0" standalone="no"?>
<!DOCTYPE svg PUBLIC "-//W3C//DTD SVG 20010904//EN"
 "http://www.w3.org/TR/2001/REC-SVG-20010904/DTD/svg10.dtd">
<svg version="1.0" xmlns="http://www.w3.org/2000/svg"
 width="750.000000pt" height="750.000000pt" viewBox="0 0 750.000000 750.000000"
 preserveAspectRatio="xMidYMid meet">

<g transform="translate(0.000000,750.000000) scale(0.100000,-0.100000)"
fill="#000000" stroke="none">
<path d="M3490 7464 c-546 -49 -961 -165 -1415 -394 -371 -187 -666 -400 -955
-690 -290 -289 -503 -584 -690 -955 -204 -404 -317 -775 -377 -1240 -25 -198
-25 -672 0 -870 60 -465 173 -836 377 -1240 187 -371 400 -666 690 -955 289
-290 584 -503 955 -690 404 -204 775 -317 1240 -377 107 -13 209 -18 435 -18
226 0 328 5 435 18 465 60 836 173 1240 377 371 187 666 400 955 690 290 289
503 584 690 955 204 404 317 775 377 1240 25 198 25 672 0 870 -60 465 -173
836 -377 1240 -265 525 -626 957 -1093 1306 -308 230 -683 427 -1047 549 -380
126 -702 179 -1125 185 -148 1 -290 1 -315 -1z m1358 -2078 c371 -91 676 -167
679 -170 4 -3 -49 -554 -116 -1223 -67 -670 -121 -1221 -121 -1225 0 -5 -157
-8 -350 -8 l-350 0 -4 23 c-3 12 -33 414 -67 892 -34 479 -63 871 -64 872 0 1
-18 -3 -38 -9 -26 -8 -37 -17 -37 -30 0 -11 -27 -400 -60 -865 -33 -466 -60
-855 -60 -865 0 -17 -14 -18 -267 -16 l-267 3 -125 738 -125 739 -30 -6 c-17
-4 -34 -10 -38 -14 -4 -4 -3 -293 2 -642 5 -349 10 -677 10 -727 l0 -93 -250
0 -249 0 -10 38 c-6 20 -67 278 -136 572 -162 686 -141 613 -173 605 -15 -3
-31 -10 -36 -15 -7 -7 51 -954 71 -1143 l6 -57 -243 2 -243 3 -178 820 c-98
451 -180 828 -181 838 -3 15 210 119 1167 572 644 304 1179 554 1190 554 11 0
323 -73 693 -163z m-338 -2912 c404 -20 738 -39 741 -43 3 -3 -10 -165 -29
-358 -30 -300 -38 -353 -51 -353 -9 1 -333 81 -720 178 l-704 177 -83 215
c-46 118 -84 219 -84 224 0 5 42 6 98 3 53 -3 428 -23 832 -43z"/>
<path d="M6510 505 c0 -22 4 -25 35 -25 l35 0 0 -100 0 -100 30 0 30 0 0 100
0 100 35 0 c31 0 35 3 35 25 l0 25 -100 0 -100 0 0 -25z"/>
<path d="M6770 406 l0 -126 35 0 34 0 3 73 3 72 26 -70 c14 -39 32 -71 41 -73
11 -2 24 21 46 80 l31 83 0 -82 1 -83 30 0 30 0 0 125 0 125 -44 0 -44 0 -22
-66 c-12 -36 -26 -62 -30 -57 -4 4 -17 33 -28 63 -20 55 -20 55 -66 58 l-46 3
0 -125z"/>
</g>
</svg>
