<?xml version="1.0" standalone="no"?>
<!DOCTYPE svg PUBLIC "-//W3C//DTD SVG 20010904//EN"
 "http://www.w3.org/TR/2001/REC-SVG-20010904/DTD/svg10.dtd">
<svg version="1.0" xmlns="http://www.w3.org/2000/svg"
 width="400.000000pt" height="400.000000pt" viewBox="0 0 400.000000 400.000000"
 preserveAspectRatio="xMidYMid meet">
<metadata>
Created by potrace 1.16, written by Peter Selinger 2001-2019
</metadata>
<g transform="translate(0.000000,400.000000) scale(0.100000,-0.100000)"
fill="#000000" stroke="none">
<path d="M1945 3853 c-4 -21 -10 -47 -15 -58 -17 -41 -30 -116 -30 -174 0 -50
-4 -63 -20 -73 -17 -11 -20 -24 -20 -89 0 -68 -2 -77 -20 -82 -18 -5 -20 -14
-20 -82 0 -63 -3 -80 -17 -91 -15 -10 -19 -31 -21 -116 -3 -86 -7 -106 -23
-121 -15 -14 -19 -32 -19 -87 0 -53 -3 -70 -14 -70 -15 0 -26 -30 -26 -75 0
-19 -7 -35 -20 -43 -13 -8 -20 -23 -20 -42 0 -23 -4 -30 -20 -30 -13 0 -20 -7
-20 -20 0 -15 -7 -20 -25 -20 -14 0 -33 -9 -42 -20 -10 -11 -28 -20 -40 -20
-13 0 -31 -9 -40 -20 -14 -16 -30 -20 -74 -20 -49 0 -57 3 -62 21 -5 18 -12
20 -59 17 l-53 -3 -3 -73 c-3 -67 -1 -74 18 -79 15 -4 20 -13 20 -40 0 -26 5
-36 20 -40 16 -4 20 -14 20 -44 0 -32 3 -39 20 -39 17 0 20 -7 20 -38 0 -26 7
-45 20 -57 11 -10 20 -31 20 -47 0 -16 9 -36 20 -45 11 -10 20 -28 20 -40 0
-13 9 -31 20 -40 11 -10 20 -28 20 -40 0 -13 9 -31 20 -40 11 -10 20 -30 20
-45 0 -17 8 -33 20 -40 14 -9 20 -24 20 -46 0 -25 5 -35 20 -39 15 -4 20 -14
20 -40 0 -26 5 -36 20 -40 15 -4 20 -14 20 -38 0 -19 8 -39 20 -50 11 -10 20
-31 20 -47 0 -15 9 -37 20 -48 11 -11 20 -29 20 -40 0 -11 8 -28 19 -39 10
-10 21 -35 25 -55 4 -22 13 -36 21 -36 10 0 15 -10 15 -30 0 -18 8 -37 20 -47
13 -11 20 -30 20 -51 0 -25 5 -35 20 -39 23 -6 28 -51 8 -71 -9 -9 -9 -15 0
-24 9 -9 15 -9 24 0 20 20 28 14 28 -21 0 -21 8 -41 20 -52 11 -10 20 -26 20
-35 0 -26 21 -40 60 -40 39 0 60 14 60 40 0 9 9 25 20 35 12 11 20 31 20 52 0
35 8 41 28 21 9 -9 15 -9 24 0 9 9 9 15 0 24 -20 20 -15 65 8 71 15 4 20 14
20 39 0 21 7 40 20 51 12 10 20 29 20 47 0 20 5 30 15 30 8 0 17 14 21 36 4
20 15 45 25 55 11 11 19 28 19 39 0 11 9 29 20 40 11 11 20 33 20 48 0 16 9
37 20 47 12 11 20 31 20 50 0 24 5 34 20 38 15 4 20 14 20 40 0 26 5 36 20 40
15 4 20 14 20 39 0 22 6 37 20 46 12 7 20 23 20 40 0 15 9 35 20 45 11 9 20
27 20 40 0 12 9 30 20 40 11 9 20 27 20 40 0 12 9 30 20 40 11 9 20 29 20 45
0 16 9 37 20 47 13 12 20 31 20 57 0 31 3 38 20 38 17 0 20 7 20 39 0 30 4 40
20 44 15 4 20 14 20 40 0 27 5 36 20 40 19 5 21 12 18 79 l-3 73 -53 3 c-47 3
-54 1 -59 -17 -5 -18 -13 -21 -62 -21 -44 0 -60 4 -74 20 -9 11 -27 20 -40 20
-12 0 -30 9 -40 20 -9 11 -28 20 -42 20 -18 0 -25 5 -25 20 0 13 -7 20 -20 20
-16 0 -20 7 -20 30 0 19 -7 34 -20 42 -13 8 -20 24 -20 43 0 45 -11 75 -26 75
-11 0 -14 17 -14 70 0 55 -4 73 -19 87 -16 15 -20 35 -23 121 -2 85 -6 106
-20 116 -15 11 -18 28 -18 91 0 68 -2 77 -20 82 -18 5 -20 14 -20 82 0 65 -3
78 -20 89 -16 10 -20 23 -20 73 0 58 -13 133 -30 174 -5 11 -11 37 -15 58 -6
37 -6 37 -55 37 -49 0 -49 0 -55 -37z"/>
<path d="M32 2328 c-20 -20 -15 -105 8 -128 11 -11 20 -29 20 -40 0 -11 8 -28
18 -38 16 -16 34 -101 45 -212 1 -19 8 -26 31 -28 16 -2 33 1 39 7 19 19 27
12 27 -27 0 -26 7 -45 20 -57 11 -10 20 -27 20 -37 0 -11 9 -22 20 -25 15 -4
20 -14 20 -40 0 -26 5 -36 20 -40 15 -4 20 -14 20 -39 0 -18 5 -36 10 -39 6
-3 10 -26 10 -50 0 -46 14 -65 33 -46 19 19 27 12 27 -25 0 -27 5 -37 20 -41
15 -4 20 -14 20 -40 0 -26 5 -36 20 -40 14 -4 20 -14 20 -34 0 -18 8 -34 20
-41 14 -9 20 -24 20 -46 0 -25 5 -35 20 -39 13 -3 20 -14 20 -29 0 -13 10 -32
22 -43 17 -17 19 -23 9 -35 -7 -8 -11 -27 -9 -43 2 -22 9 -29 31 -31 19 -2 27
-9 27 -22 0 -10 8 -25 19 -32 10 -7 22 -28 25 -46 4 -18 14 -32 22 -32 8 0 14
-10 14 -25 0 -18 5 -25 20 -25 22 0 26 -10 9 -27 -11 -11 25 -83 42 -83 5 0 9
-11 9 -25 0 -14 9 -34 20 -45 11 -11 20 -29 20 -40 0 -13 7 -20 20 -20 17 0
20 -7 20 -40 0 -33 3 -40 20 -40 13 0 20 -7 20 -20 0 -17 7 -20 44 -20 45 0
76 18 76 46 0 7 9 19 20 26 11 7 20 21 20 30 0 11 8 18 20 18 13 0 20 7 20 20
0 11 7 20 15 20 9 0 20 11 25 25 5 14 14 25 20 25 5 0 12 11 16 25 12 50 76
67 87 24 3 -10 12 -19 20 -19 8 0 17 -9 20 -20 3 -11 12 -20 21 -20 9 0 16 -8
16 -20 0 -13 7 -20 20 -20 13 0 20 -7 20 -20 0 -13 7 -20 20 -20 13 0 20 -7
20 -20 0 -13 7 -20 20 -20 11 0 20 -7 20 -15 0 -16 11 -29 100 -122 33 -35 60
-67 60 -72 0 -6 8 -16 18 -23 10 -7 21 -21 25 -31 3 -9 13 -17 22 -17 8 0 15
-7 15 -16 0 -9 9 -18 20 -21 11 -3 20 -12 20 -19 0 -8 8 -18 18 -21 9 -4 23
-15 30 -25 15 -21 81 -25 100 -6 20 20 15 92 -8 113 -11 10 -20 28 -20 40 0
12 -9 30 -20 40 -22 20 -26 45 -9 62 16 16 7 67 -13 71 -14 3 -18 -3 -18 -27
0 -17 -4 -31 -10 -31 -5 0 -10 14 -10 30 0 17 5 30 10 30 13 0 13 27 -1 36 -6
3 -16 1 -22 -5 -20 -20 -27 -12 -27 34 0 33 -5 50 -20 62 -13 11 -20 30 -20
51 0 25 -5 35 -20 39 -14 4 -20 14 -20 34 0 18 -8 34 -20 41 -12 8 -20 24 -20
40 0 17 -8 33 -20 40 -14 9 -20 24 -20 46 0 25 -5 35 -20 39 -15 4 -20 14 -20
40 0 26 -5 36 -20 40 -15 4 -20 14 -20 39 0 18 -4 36 -10 39 -5 3 -10 15 -10
26 0 11 -7 31 -16 45 -16 23 -16 26 2 39 16 11 17 16 6 27 -11 11 -16 10 -26
-4 -18 -24 -26 -23 -26 5 0 12 -9 28 -20 35 -13 8 -20 23 -20 42 0 23 -4 30
-20 30 -16 0 -20 7 -20 33 0 47 -10 77 -26 77 -9 0 -14 12 -14 34 0 23 -7 39
-19 48 -11 8 -21 28 -23 48 -3 33 -5 35 -43 38 -57 5 -105 -6 -105 -24 0 -8
-11 -26 -25 -40 -14 -14 -25 -31 -25 -39 0 -17 -16 -20 -25 -5 -9 15 -25 12
-32 -6 -3 -9 0 -20 8 -24 7 -5 10 -13 5 -17 -5 -4 -11 -2 -13 5 -6 15 -29 16
-38 2 -4 -6 -1 -18 6 -26 10 -12 8 -18 -9 -30 -12 -8 -22 -19 -22 -25 0 -17
-41 -51 -56 -45 -8 3 -19 18 -25 32 -5 15 -17 33 -27 40 -13 10 -14 14 -3 27
7 9 10 21 6 27 -9 14 -32 13 -38 -2 -2 -7 -8 -9 -13 -5 -5 4 -2 12 5 17 8 4
11 15 8 24 -7 18 -23 21 -32 6 -10 -17 -25 -11 -25 10 0 13 -7 20 -20 20 -13
0 -20 7 -20 20 0 13 -7 20 -20 20 -15 0 -20 7 -20 29 0 17 -8 35 -18 43 -10 7
-21 21 -25 31 -3 9 -13 17 -21 17 -7 0 -16 9 -19 20 -3 11 -12 20 -21 20 -9 0
-16 8 -16 20 0 13 -7 20 -19 20 -14 0 -21 10 -25 35 -4 21 -13 35 -21 35 -9 0
-15 9 -15 21 0 12 -8 23 -19 26 -11 3 -21 13 -24 24 -3 10 -12 19 -21 19 -9 0
-16 8 -16 20 0 13 -7 20 -20 20 -12 0 -20 7 -20 16 0 14 -23 49 -63 94 -8 8
-17 23 -20 33 -4 9 -13 17 -21 17 -7 0 -16 9 -19 20 -3 11 -12 20 -21 20 -19
0 -21 11 -5 27 16 16 2 33 -27 33 -16 0 -24 6 -24 16 0 9 -15 32 -32 50 -25
26 -41 34 -68 34 -20 0 -41 -5 -48 -12z"/>
<path d="M3853 2306 c-18 -18 -33 -41 -33 -50 0 -10 -8 -16 -24 -16 -29 0 -43
-17 -27 -33 16 -16 14 -27 -5 -27 -9 0 -18 -9 -21 -20 -3 -11 -12 -20 -19 -20
-8 0 -17 -8 -21 -17 -3 -10 -12 -25 -20 -33 -40 -45 -63 -80 -63 -94 0 -9 -8
-16 -20 -16 -13 0 -20 -7 -20 -20 0 -12 -7 -20 -16 -20 -9 0 -18 -9 -21 -19
-3 -11 -13 -21 -24 -24 -11 -3 -19 -14 -19 -26 0 -12 -6 -21 -15 -21 -8 0 -17
-14 -21 -35 -4 -25 -11 -35 -25 -35 -12 0 -19 -7 -19 -19 0 -10 -9 -21 -20
-24 -11 -3 -20 -12 -20 -21 0 -9 -7 -16 -15 -16 -9 0 -19 -8 -22 -17 -4 -10
-15 -24 -25 -31 -10 -8 -18 -26 -18 -43 0 -22 -5 -29 -20 -29 -13 0 -20 -7
-20 -20 0 -13 -7 -20 -20 -20 -13 0 -20 -7 -20 -20 0 -21 -15 -27 -25 -10 -9
15 -25 12 -32 -6 -3 -9 0 -20 8 -24 7 -5 10 -13 5 -17 -5 -4 -11 -2 -13 5 -6
15 -29 16 -38 2 -4 -6 -1 -18 6 -27 11 -13 10 -17 -3 -27 -10 -7 -22 -25 -27
-40 -6 -14 -17 -29 -25 -32 -15 -6 -56 28 -56 45 0 6 -10 17 -22 25 -17 12
-19 18 -9 30 7 8 10 20 6 26 -9 14 -32 13 -38 -2 -2 -7 -8 -9 -13 -5 -5 4 -2
12 5 17 8 4 11 15 8 24 -7 18 -23 21 -32 6 -9 -15 -25 -12 -25 5 0 8 -11 25
-25 39 -14 14 -25 32 -25 40 0 18 -48 29 -105 24 -38 -3 -40 -5 -43 -38 -2
-20 -12 -40 -23 -48 -12 -9 -19 -25 -19 -48 0 -22 -5 -34 -14 -34 -16 0 -26
-30 -26 -77 0 -26 -4 -33 -20 -33 -16 0 -20 -7 -20 -30 0 -19 -7 -34 -20 -42
-11 -7 -20 -23 -20 -35 0 -28 -8 -29 -26 -5 -10 14 -15 15 -26 4 -11 -11 -10
-16 6 -27 18 -13 18 -16 2 -39 -9 -14 -16 -34 -16 -45 0 -11 -4 -23 -10 -26
-5 -3 -10 -21 -10 -39 0 -25 -5 -35 -20 -39 -15 -4 -20 -14 -20 -40 0 -26 -5
-36 -20 -40 -15 -4 -20 -14 -20 -39 0 -22 -6 -37 -20 -46 -12 -7 -20 -23 -20
-40 0 -16 -8 -32 -20 -40 -12 -7 -20 -23 -20 -41 0 -20 -6 -30 -20 -34 -15 -4
-20 -14 -20 -39 0 -21 -7 -40 -20 -51 -15 -12 -20 -29 -20 -62 0 -46 -7 -54
-27 -34 -6 6 -16 8 -22 5 -14 -9 -14 -36 -1 -36 6 0 10 -13 10 -30 0 -16 -4
-30 -10 -30 -5 0 -10 14 -10 31 0 24 -4 30 -17 27 -21 -4 -30 -55 -14 -71 17
-17 13 -42 -9 -62 -11 -10 -20 -28 -20 -40 0 -12 -9 -30 -20 -40 -23 -21 -28
-93 -8 -113 19 -19 85 -15 100 6 7 10 21 21 31 25 9 3 17 13 17 21 0 7 9 16
20 19 11 3 20 12 20 21 0 9 7 16 15 16 9 0 19 8 22 18 4 9 15 23 25 30 10 7
18 17 18 23 0 5 27 37 60 72 89 93 100 106 100 122 0 8 9 15 20 15 13 0 20 7
20 20 0 13 7 20 20 20 13 0 20 7 20 20 0 13 7 20 20 20 13 0 20 7 20 20 0 12
7 20 16 20 9 0 18 9 21 20 3 11 12 20 20 20 8 0 17 9 20 19 11 43 75 26 87
-24 4 -14 11 -25 16 -25 6 0 15 -11 20 -25 5 -14 16 -25 25 -25 8 0 15 -9 15
-20 0 -13 7 -20 20 -20 12 0 20 -7 20 -18 0 -9 9 -23 20 -30 11 -7 20 -19 20
-26 0 -28 31 -46 76 -46 37 0 44 3 44 20 0 13 7 20 20 20 17 0 20 7 20 40 0
33 3 40 20 40 13 0 20 7 20 20 0 11 9 29 20 40 11 11 20 29 20 40 0 11 9 29
20 40 13 13 20 33 20 60 0 33 3 40 20 40 15 0 20 7 20 25 0 15 6 25 14 25 8 0
18 14 22 32 3 18 15 39 25 46 11 7 19 22 19 32 0 13 8 20 28 22 21 2 28 9 30
31 2 16 -2 35 -9 43 -10 12 -8 18 9 35 12 11 22 30 22 43 0 15 7 26 20 29 15
4 20 14 20 39 0 22 6 37 20 46 12 7 20 23 20 41 0 20 6 30 20 34 15 4 20 14
20 40 0 26 5 36 20 40 15 4 20 14 20 41 0 37 8 44 27 25 19 -19 33 0 33 46 0
24 5 47 10 50 6 3 10 21 10 39 0 25 5 35 20 39 15 4 20 14 20 40 0 26 5 36 20
40 11 3 20 14 20 25 0 10 9 27 20 37 13 12 20 31 20 57 0 39 8 46 27 27 6 -6
23 -9 39 -7 23 2 30 9 31 28 11 111 29 196 45 212 10 10 18 27 18 38 0 11 9
29 20 40 14 14 20 33 20 68 0 57 -12 72 -59 72 -28 0 -44 -8 -68 -34z"/>
</g>
</svg>
