<?xml version="1.0" standalone="no"?>
<!DOCTYPE svg PUBLIC "-//W3C//DTD SVG 20010904//EN"
 "http://www.w3.org/TR/2001/REC-SVG-20010904/DTD/svg10.dtd">
<svg version="1.0" xmlns="http://www.w3.org/2000/svg"
 width="850.000000pt" height="479.000000pt" viewBox="0 0 850.000000 479.000000"
 preserveAspectRatio="xMidYMid meet">

<g transform="translate(0.000000,479.000000) scale(0.100000,-0.100000)"
fill="#000000" stroke="none">
<path d="M3307 2905 c-179 -49 -336 -210 -376 -385 -16 -68 -13 -209 5 -271
51 -174 189 -312 363 -363 62 -18 203 -21 271 -5 179 41 341 206 385 390 65
279 -104 562 -380 634 -71 18 -202 18 -268 0z m279 -190 c71 -35 131 -97 167
-174 72 -153 19 -348 -119 -440 -181 -120 -408 -53 -502 147 -23 49 -27 70
-27 147 0 76 4 99 26 145 47 101 125 168 228 197 66 18 164 9 227 -22z"/>
<path d="M555 2888 c-3 -7 -4 -233 -3 -503 l3 -490 92 -3 93 -3 395 496 c217
272 395 499 395 505 0 11 -187 14 -213 4 -9 -3 -141 -163 -294 -355 l-278
-349 -5 353 -5 352 -88 3 c-64 2 -89 -1 -92 -10z"/>
<path d="M1852 2878 c-33 -24 -782 -960 -782 -978 0 -6 40 -10 109 -10 l109 0
139 174 c76 96 142 174 147 173 4 -2 69 -79 145 -172 l136 -170 93 -3 92 -3 0
506 0 505 -79 0 c-65 0 -83 -4 -109 -22z m6 -600 l-3 -112 -87 111 c-49 62
-88 115 -88 118 0 4 39 57 88 117 l87 110 3 -117 c1 -64 1 -166 0 -227z"/>
<path d="M2287 2894 c-4 -4 -7 -232 -7 -506 l0 -498 240 0 241 0 22 24 c13 13
44 52 70 85 l48 61 -218 2 -218 3 -5 415 -5 415 -80 3 c-45 1 -84 0 -88 -4z"/>
<path d="M4150 2395 l0 -506 88 3 87 3 3 413 2 412 222 0 c210 0 220 -1 206
-17 -8 -10 -77 -96 -152 -191 l-137 -173 178 -222 178 -222 113 -3 c61 -1 112
1 112 5 0 4 -77 104 -171 222 -97 122 -168 219 -165 227 3 7 57 78 121 157
l115 144 0 127 0 126 -400 0 -400 0 0 -505z"/>
<path d="M5220 2395 l0 -506 93 3 92 3 136 170 c76 93 141 170 145 172 5 1 71
-77 147 -173 l139 -174 115 0 c89 0 113 3 107 13 -12 19 -744 938 -773 970
-23 26 -29 27 -113 27 l-88 0 0 -505z m273 116 c48 -60 87 -112 87 -116 0 -7
-171 -225 -177 -225 -2 0 -3 101 -3 225 0 124 1 225 3 225 2 0 43 -49 90 -109z"/>
<path d="M6067 2894 c-4 -4 -7 -119 -7 -255 l0 -247 83 -106 c45 -58 85 -105
89 -106 4 0 9 95 10 211 l3 211 284 -356 283 -357 92 3 91 3 0 500 0 500 -87
3 -88 3 0 -356 c0 -195 -3 -355 -7 -354 -5 0 -134 158 -288 352 l-280 352 -85
3 c-47 1 -89 0 -93 -4z"/>
<path d="M7140 2810 l0 -90 140 0 140 0 2 -412 3 -413 88 -3 87 -3 0 416 0
415 168 0 c93 0 172 3 175 6 6 6 -60 97 -110 150 l-22 24 -336 0 -335 0 0 -90z"/>
</g>
</svg>
