<?xml version="1.0" standalone="no"?>
<!DOCTYPE svg PUBLIC "-//W3C//DTD SVG 20010904//EN"
 "http://www.w3.org/TR/2001/REC-SVG-20010904/DTD/svg10.dtd">
<svg version="1.0" xmlns="http://www.w3.org/2000/svg"
 width="850.000000pt" height="475.000000pt" viewBox="0 0 850.000000 475.000000"
 preserveAspectRatio="xMidYMid meet">

<g transform="translate(0.000000,475.000000) scale(0.100000,-0.100000)"
fill="#000000" stroke="none">
<path d="M2307 3803 c-4 -3 -7 -336 -7 -738 l0 -732 23 -34 c37 -55 1172
-1472 1194 -1492 18 -16 59 -17 614 -15 441 2 594 6 594 15 0 13 -17 34 -1384
1746 -553 691 -1010 1257 -1016 1257 -6 0 -15 -3 -18 -7z"/>
<path d="M5156 2824 c-472 -591 -785 -992 -782 -1000 5 -12 99 -14 583 -14
318 0 588 3 601 6 25 7 408 481 417 517 3 12 4 348 3 747 -3 645 -5 725 -18
728 -11 2 -286 -336 -804 -984z"/>
</g>
</svg>
